<svg width="16" height="16" viewBox="0 0 16 16" xmlns="http://www.w3.org/2000/svg">
  <path d="M8 0C3.58 0 0 3.73 0 8.33c0 3.68 2.29 6.8 5.47 7.9.4.08.55-.18.55-.4 0-.2-.01-.86-.01-1.56-2.01.38-2.53-.51-2.69-.98-.09-.24-.48-.98-.82-1.18-.28-.15-.68-.52-.01-.53.63-.01 1.08.6 1.23.85.72 1.26 1.87.91 2.33.69.07-.54.28-.91.5-1.12-1.78-.21-3.64-.93-3.64-4.13 0-.91.31-1.66.82-2.24-.08-.21-.36-1.07.08-2.22 0 0 .67-.22 2.2.86a7.33 7.33 0 0 1 4 0c1.53-1.08 2.2-.86 2.2-.86.44 1.15.16 2.01.08 2.22.51.58.82 1.32.82 2.24 0 3.21-1.87 3.92-3.65 4.12.29.26.54.76.54 1.54 0 1.12-.01 2.01-.01 2.29 0 .22.15.49.55.4A8.35 8.35 0 0 0 16 8.33C16 3.73 12.42 0 8 0Z"/>
</svg>
